<?xml version="1.0" encoding="UTF-8" standalone="no"?>
<svg xmlns="http://www.w3.org/2000/svg" width="1448" height="1086" viewBox="0 0 1448 1086" version="1.1">

  <path d="M 965.00 848.00 L 966.00 851.00 L 1035.00 850.00 L 1036.00 849.00 L 1047.00 848.00 L 1026.00 848.00 L 1025.00 847.00 Z
M 390.00 849.00 L 406.00 849.00 L 407.00 850.00 L 453.00 851.00 L 476.00 850.00 L 475.00 847.00 L 410.00 847.00 L 409.00 848.00 Z
M 935.00 827.00 L 919.00 826.00 L 901.00 828.00 L 902.00 833.00 L 914.00 833.00 L 916.00 835.00 L 917.00 874.00 L 922.00 873.00 L 922.00 835.00 L 924.00 833.00 L 936.00 832.00 Z
M 828.00 827.00 L 829.00 874.00 L 835.00 873.00 L 835.00 857.00 L 837.00 855.00 L 843.00 855.00 L 848.00 861.00 L 850.00 866.00 L 854.00 872.00 L 856.00 874.00 L 862.00 874.00 L 862.00 872.00 L 854.00 860.00 L 852.00 856.00 L 853.00 853.00 L 859.00 848.00 L 861.00 843.00 L 861.00 838.00 L 859.00 833.00 L 855.00 829.00 L 851.00 827.00 L 842.00 826.00 L 830.00 826.00 Z
M 835.00 835.00 L 837.00 833.00 L 848.00 833.00 L 850.00 834.00 L 853.00 837.00 L 854.00 839.00 L 854.00 843.00 L 853.00 845.00 L 849.00 848.00 L 846.00 849.00 L 837.00 849.00 L 835.00 847.00 Z
M 753.00 826.00 L 744.00 830.00 L 738.00 837.00 L 735.00 844.00 L 735.00 856.00 L 736.00 860.00 L 738.00 864.00 L 744.00 870.00 L 752.00 874.00 L 760.00 875.00 L 768.00 873.00 L 772.00 871.00 L 777.00 867.00 L 777.00 866.00 L 780.00 863.00 L 783.00 855.00 L 783.00 845.00 L 782.00 841.00 L 780.00 837.00 L 777.00 833.00 L 772.00 829.00 L 765.00 826.00 Z
M 756.00 832.00 L 761.00 832.00 L 765.00 833.00 L 769.00 835.00 L 773.00 839.00 L 776.00 846.00 L 776.00 854.00 L 773.00 861.00 L 768.00 866.00 L 763.00 868.00 L 754.00 868.00 L 751.00 867.00 L 745.00 862.00 L 742.00 856.00 L 742.00 844.00 L 744.00 840.00 L 750.00 834.00 Z
M 672.00 826.00 L 668.00 828.00 L 663.00 833.00 L 662.00 835.00 L 662.00 842.00 L 664.00 846.00 L 667.00 849.00 L 671.00 851.00 L 679.00 853.00 L 683.00 855.00 L 686.00 859.00 L 686.00 864.00 L 683.00 867.00 L 676.00 869.00 L 672.00 868.00 L 669.00 866.00 L 667.00 863.00 L 665.00 862.00 L 661.00 865.00 L 661.00 867.00 L 666.00 872.00 L 670.00 874.00 L 674.00 874.00 L 675.00 875.00 L 678.00 875.00 L 679.00 874.00 L 683.00 874.00 L 686.00 873.00 L 690.00 870.00 L 693.00 864.00 L 693.00 857.00 L 691.00 853.00 L 687.00 849.00 L 677.00 846.00 L 673.00 844.00 L 669.00 840.00 L 669.00 836.00 L 672.00 833.00 L 674.00 832.00 L 679.00 832.00 L 682.00 833.00 L 686.00 837.00 L 688.00 837.00 L 691.00 835.00 L 691.00 832.00 L 688.00 829.00 L 682.00 826.00 Z
M 589.00 828.00 L 590.00 874.00 L 618.00 873.00 L 617.00 868.00 L 597.00 868.00 L 595.00 866.00 L 595.00 854.00 L 597.00 852.00 L 615.00 851.00 L 614.00 846.00 L 597.00 846.00 L 595.00 844.00 L 595.00 835.00 L 597.00 833.00 L 617.00 833.00 L 616.00 826.00 L 595.00 826.00 Z
M 510.00 828.00 L 511.00 874.00 L 517.00 873.00 L 517.00 857.00 L 519.00 855.00 L 525.00 855.00 L 529.00 859.00 L 533.00 867.00 L 537.00 872.00 L 537.00 873.00 L 544.00 874.00 L 544.00 871.00 L 534.00 855.00 L 541.00 848.00 L 542.00 846.00 L 543.00 840.00 L 541.00 833.00 L 537.00 829.00 L 533.00 827.00 L 527.00 826.00 L 516.00 826.00 Z
M 517.00 835.00 L 519.00 833.00 L 530.00 833.00 L 532.00 834.00 L 535.00 837.00 L 536.00 839.00 L 536.00 842.00 L 535.00 844.00 L 531.00 848.00 L 528.00 849.00 L 519.00 849.00 L 517.00 847.00 Z
M 1056.00 696.00 L 1062.00 701.00 L 1079.00 728.00 L 1085.00 739.00 L 1085.00 764.00 L 1082.00 769.00 L 1090.00 770.00 L 1095.00 770.00 L 1097.00 769.00 L 1094.00 763.00 L 1094.00 738.00 L 1114.00 705.00 L 1117.00 701.00 L 1122.00 697.00 L 1123.00 695.00 L 1112.00 695.00 L 1113.00 703.00 L 1108.00 712.00 L 1101.00 722.00 L 1100.00 725.00 L 1097.00 730.00 L 1095.00 732.00 L 1095.00 733.00 L 1091.00 733.00 L 1090.00 730.00 L 1085.00 723.00 L 1080.00 713.00 L 1073.00 703.00 L 1072.00 700.00 L 1073.00 695.00 Z
M 960.00 696.00 L 960.00 705.00 L 966.00 700.00 L 970.00 698.00 L 974.00 697.00 L 985.00 697.00 L 988.00 700.00 L 988.00 764.00 L 985.00 769.00 L 1000.00 769.00 L 997.00 763.00 L 997.00 700.00 L 1000.00 697.00 L 1010.00 697.00 L 1019.00 700.00 L 1025.00 706.00 L 1025.00 699.00 L 1023.00 695.00 Z
M 911.00 695.00 L 914.00 699.00 L 914.00 764.00 L 911.00 769.00 L 916.00 769.00 L 917.00 770.00 L 926.00 770.00 L 923.00 765.00 L 923.00 699.00 L 926.00 695.00 Z
M 807.00 696.00 L 811.00 699.00 L 814.00 705.00 L 822.00 724.00 L 828.00 741.00 L 834.00 753.00 L 838.00 765.00 L 840.00 769.00 L 845.00 769.00 L 845.00 767.00 L 868.00 712.00 L 874.00 700.00 L 879.00 695.00 L 868.00 695.00 L 870.00 698.00 L 870.00 703.00 L 864.00 715.00 L 862.00 722.00 L 855.00 736.00 L 853.00 743.00 L 848.00 754.00 L 844.00 754.00 L 843.00 752.00 L 843.00 750.00 L 837.00 738.00 L 824.00 707.00 L 822.00 701.00 L 822.00 698.00 L 824.00 695.00 Z
M 726.00 695.00 L 729.00 700.00 L 729.00 763.00 L 726.00 769.00 L 767.00 770.00 L 776.00 769.00 L 777.00 767.00 L 777.00 762.00 L 778.00 761.00 L 778.00 758.00 L 776.00 759.00 L 776.00 760.00 L 771.00 764.00 L 762.00 767.00 L 740.00 767.00 L 738.00 765.00 L 738.00 736.00 L 740.00 734.00 L 760.00 734.00 L 766.00 738.00 L 765.00 725.00 L 763.00 728.00 L 759.00 730.00 L 755.00 731.00 L 740.00 731.00 L 738.00 729.00 L 738.00 699.00 L 740.00 697.00 L 759.00 697.00 L 765.00 698.00 L 769.00 700.00 L 775.00 706.00 L 774.00 695.00 Z
M 516.00 696.00 L 520.00 699.00 L 521.00 701.00 L 522.00 707.00 L 522.00 758.00 L 520.00 766.00 L 518.00 769.00 L 520.00 769.00 L 521.00 770.00 L 524.00 770.00 L 525.00 769.00 L 527.00 769.00 L 524.00 762.00 L 527.00 708.00 L 531.00 714.00 L 576.00 770.00 L 579.00 769.00 L 579.00 702.00 L 580.00 699.00 L 583.00 695.00 L 573.00 695.00 L 576.00 699.00 L 577.00 703.00 L 575.00 754.00 L 568.00 746.00 L 557.00 731.00 L 544.00 716.00 L 534.00 702.00 L 528.00 695.00 Z
M 326.00 696.00 L 329.00 698.00 L 330.00 702.00 L 330.00 762.00 L 329.00 766.00 L 327.00 769.00 L 334.00 770.00 L 357.00 770.00 L 364.00 769.00 L 375.00 769.00 L 377.00 757.00 L 375.00 758.00 L 372.00 762.00 L 365.00 766.00 L 361.00 767.00 L 341.00 767.00 L 339.00 765.00 L 338.00 761.00 L 339.00 752.00 L 338.00 704.00 L 339.00 699.00 L 342.00 695.00 Z
M 623.00 710.00 L 619.00 717.00 L 617.00 723.00 L 616.00 728.00 L 616.00 738.00 L 617.00 743.00 L 620.00 751.00 L 625.00 758.00 L 628.00 761.00 L 632.00 764.00 L 640.00 768.00 L 647.00 770.00 L 667.00 770.00 L 674.00 768.00 L 682.00 764.00 L 687.00 764.00 L 687.00 738.00 L 690.00 735.00 L 672.00 734.00 L 673.00 736.00 L 677.00 739.00 L 678.00 742.00 L 678.00 755.00 L 677.00 762.00 L 675.00 764.00 L 671.00 766.00 L 662.00 768.00 L 655.00 768.00 L 650.00 767.00 L 640.00 762.00 L 633.00 755.00 L 628.00 746.00 L 626.00 738.00 L 626.00 725.00 L 627.00 720.00 L 631.00 710.00 L 638.00 702.00 L 647.00 697.00 L 651.00 696.00 L 661.00 696.00 L 668.00 698.00 L 672.00 700.00 L 680.00 708.00 L 682.00 712.00 L 682.00 710.00 L 683.00 709.00 L 684.00 705.00 L 684.00 701.00 L 682.00 699.00 L 675.00 696.00 L 668.00 694.00 L 649.00 694.00 L 637.00 698.00 L 631.00 702.00 Z
M 434.00 695.00 L 420.00 702.00 L 413.00 709.00 L 408.00 718.00 L 406.00 725.00 L 406.00 740.00 L 407.00 745.00 L 412.00 755.00 L 420.00 763.00 L 429.00 768.00 L 435.00 770.00 L 455.00 770.00 L 461.00 768.00 L 471.00 762.00 L 477.00 756.00 L 481.00 750.00 L 483.00 746.00 L 485.00 739.00 L 485.00 724.00 L 484.00 720.00 L 478.00 708.00 L 471.00 701.00 L 462.00 696.00 L 455.00 694.00 L 438.00 694.00 Z
M 439.00 696.00 L 448.00 696.00 L 455.00 698.00 L 460.00 701.00 L 468.00 709.00 L 473.00 718.00 L 475.00 724.00 L 476.00 730.00 L 476.00 738.00 L 475.00 744.00 L 471.00 754.00 L 469.00 757.00 L 463.00 763.00 L 455.00 767.00 L 451.00 768.00 L 443.00 768.00 L 434.00 765.00 L 431.00 763.00 L 422.00 754.00 L 418.00 747.00 L 415.00 737.00 L 415.00 724.00 L 418.00 714.00 L 420.00 710.00 L 429.00 700.00 L 435.00 697.00 Z
M 584.00 573.00 L 597.00 573.00 L 612.00 575.00 L 630.00 580.00 L 640.00 584.00 L 652.00 590.00 L 670.00 601.00 L 688.00 610.00 L 702.00 615.00 L 710.00 617.00 L 723.00 619.00 L 741.00 619.00 L 758.00 616.00 L 761.00 614.00 L 759.00 614.00 L 758.00 615.00 L 742.00 615.00 L 722.00 611.00 L 705.00 605.00 L 657.00 581.00 L 646.00 577.00 L 635.00 574.00 L 621.00 572.00 L 599.00 571.00 Z
M 703.00 538.00 L 707.00 538.00 L 724.00 543.00 L 734.00 547.00 L 758.00 559.00 L 777.00 566.00 L 789.00 569.00 L 802.00 571.00 L 820.00 570.00 L 811.00 570.00 L 798.00 567.00 L 789.00 564.00 L 766.00 554.00 L 749.00 545.00 L 735.00 540.00 L 720.00 537.00 Z
M 513.00 563.00 L 517.00 561.00 L 536.00 555.00 L 564.00 549.00 L 590.00 546.00 L 610.00 546.00 L 629.00 548.00 L 640.00 550.00 L 655.00 554.00 L 669.00 559.00 L 685.00 566.00 L 718.00 583.00 L 736.00 591.00 L 766.00 601.00 L 794.00 607.00 L 812.00 609.00 L 824.00 609.00 L 843.00 607.00 L 862.00 602.00 L 872.00 598.00 L 882.00 592.00 L 880.00 592.00 L 875.00 595.00 L 862.00 599.00 L 851.00 601.00 L 837.00 602.00 L 819.00 601.00 L 797.00 597.00 L 778.00 591.00 L 763.00 585.00 L 748.00 578.00 L 719.00 562.00 L 715.00 561.00 L 709.00 557.00 L 701.00 553.00 L 684.00 546.00 L 658.00 538.00 L 634.00 534.00 L 610.00 534.00 L 598.00 535.00 L 575.00 539.00 L 560.00 543.00 L 542.00 549.00 L 523.00 557.00 Z
M 678.00 262.00 L 678.00 264.00 L 713.00 264.00 L 724.00 265.00 L 739.00 268.00 L 750.00 272.00 L 754.00 274.00 L 764.00 281.00 L 771.00 288.00 L 776.00 295.00 L 782.00 307.00 L 785.00 317.00 L 787.00 329.00 L 787.00 350.00 L 786.00 357.00 L 782.00 370.00 L 779.00 377.00 L 773.00 386.00 L 765.00 394.00 L 761.00 397.00 L 754.00 401.00 L 745.00 404.00 L 737.00 405.00 L 702.00 406.00 L 722.00 406.00 L 730.00 408.00 L 738.00 413.00 L 747.00 422.00 L 766.00 452.00 L 776.00 472.00 L 790.00 496.00 L 803.00 514.00 L 820.00 531.00 L 828.00 537.00 L 838.00 543.00 L 859.00 553.00 L 879.00 559.00 L 892.00 561.00 L 914.00 561.00 L 926.00 559.00 L 937.00 556.00 L 945.00 553.00 L 951.00 549.00 L 938.00 553.00 L 924.00 555.00 L 911.00 555.00 L 901.00 554.00 L 891.00 552.00 L 881.00 549.00 L 871.00 545.00 L 865.00 542.00 L 851.00 533.00 L 833.00 517.00 L 817.00 497.00 L 805.00 479.00 L 796.00 463.00 L 780.00 438.00 L 771.00 426.00 L 757.00 412.00 L 749.00 408.00 L 749.00 405.00 L 752.00 404.00 L 756.00 404.00 L 767.00 400.00 L 775.00 396.00 L 785.00 389.00 L 795.00 379.00 L 800.00 372.00 L 804.00 364.00 L 807.00 355.00 L 809.00 346.00 L 809.00 325.00 L 808.00 319.00 L 805.00 309.00 L 796.00 293.00 L 783.00 280.00 L 779.00 277.00 L 766.00 270.00 L 755.00 266.00 L 747.00 264.00 L 733.00 262.00 Z
M 592.00 209.00 L 595.00 209.00 L 596.00 210.00 L 600.00 210.00 L 606.00 213.00 L 609.00 216.00 L 611.00 220.00 L 613.00 229.00 L 613.00 445.00 L 612.00 451.00 L 609.00 457.00 L 604.00 461.00 L 601.00 462.00 L 598.00 462.00 L 595.00 464.00 L 711.00 463.00 L 711.00 451.00 L 712.00 450.00 L 711.00 444.00 L 710.00 448.00 L 705.00 454.00 L 697.00 458.00 L 685.00 460.00 L 643.00 460.00 L 638.00 458.00 L 636.00 456.00 L 634.00 452.00 L 633.00 448.00 L 633.00 226.00 L 635.00 219.00 L 641.00 212.00 L 646.00 210.00 L 649.00 210.00 L 653.00 208.00 Z
M 503.00 228.00 L 485.00 256.00 L 473.00 280.00 L 468.00 292.00 L 460.00 316.00 L 457.00 328.00 L 453.00 349.00 L 451.00 366.00 L 451.00 406.00 L 454.00 430.00 L 458.00 450.00 L 466.00 476.00 L 472.00 491.00 L 482.00 511.00 L 491.00 526.00 L 497.00 534.00 L 497.00 535.00 L 499.00 536.00 L 496.00 530.00 L 492.00 525.00 L 479.00 499.00 L 471.00 479.00 L 467.00 466.00 L 461.00 442.00 L 457.00 415.00 L 456.00 400.00 L 456.00 376.00 L 459.00 349.00 L 463.00 329.00 L 472.00 299.00 L 483.00 273.00 L 491.00 258.00 L 497.00 248.00 L 510.00 229.00 L 530.00 206.00 L 548.00 189.00 L 571.00 171.00 L 590.00 159.00 L 607.00 150.00 L 623.00 143.00 L 639.00 137.00 L 652.00 133.00 L 679.00 127.00 L 702.00 124.00 L 720.00 123.00 L 730.00 123.00 L 758.00 125.00 L 786.00 130.00 L 805.00 135.00 L 827.00 143.00 L 856.00 157.00 L 878.00 171.00 L 890.00 180.00 L 913.00 200.00 L 920.00 207.00 L 920.00 208.00 L 933.00 222.00 L 949.00 244.00 L 958.00 259.00 L 969.00 281.00 L 976.00 298.00 L 982.00 316.00 L 988.00 342.00 L 990.00 354.00 L 992.00 374.00 L 992.00 405.00 L 991.00 416.00 L 988.00 437.00 L 981.00 466.00 L 974.00 486.00 L 965.00 506.00 L 957.00 521.00 L 946.00 539.00 L 949.00 537.00 L 949.00 536.00 L 952.00 533.00 L 960.00 521.00 L 967.00 509.00 L 974.00 495.00 L 981.00 478.00 L 990.00 450.00 L 995.00 426.00 L 998.00 399.00 L 998.00 375.00 L 997.00 360.00 L 992.00 330.00 L 988.00 314.00 L 981.00 293.00 L 974.00 276.00 L 968.00 266.00 L 968.00 264.00 L 966.00 262.00 L 966.00 260.00 L 948.00 231.00 L 934.00 213.00 L 926.00 204.00 L 911.00 189.00 L 896.00 176.00 L 884.00 167.00 L 869.00 157.00 L 859.00 151.00 L 839.00 141.00 L 820.00 133.00 L 799.00 126.00 L 777.00 121.00 L 758.00 118.00 L 730.00 116.00 L 703.00 117.00 L 674.00 121.00 L 656.00 125.00 L 623.00 136.00 L 611.00 141.00 L 597.00 148.00 L 576.00 160.00 L 556.00 174.00 L 536.00 191.00 L 522.00 205.00 L 509.00 220.00 Z" fill="#f1c77e" fill-rule="evenodd"/>
</svg>
