<?xml version="1.0" encoding="UTF-8"?>
<svg xmlns="http://www.w3.org/2000/svg" viewBox="314 682 821 205">
  <path d="M 965.00 848.00 L 966.00 851.00 L 1035.00 850.00 L 1036.00 849.00 L 1047.00 848.00 L 1026.00 848.00 L 1025.00 847.00 Z
  M 390.00 849.00 L 406.00 849.00 L 407.00 850.00 L 453.00 851.00 L 476.00 850.00 L 475.00 847.00 L 410.00 847.00 L 409.00 848.00 Z
  M 935.00 827.00 L 919.00 826.00 L 901.00 828.00 L 902.00 833.00 L 914.00 833.00 L 916.00 835.00 L 917.00 874.00 L 922.00 873.00 L 922.00 835.00 L 924.00 833.00 L 936.00 832.00 Z
  M 828.00 827.00 L 829.00 874.00 L 835.00 873.00 L 835.00 857.00 L 837.00 855.00 L 843.00 855.00 L 848.00 861.00 L 850.00 866.00 L 854.00 872.00 L 856.00 874.00 L 862.00 874.00 L 862.00 872.00 L 854.00 860.00 L 852.00 856.00 L 853.00 853.00 L 859.00 848.00 L 861.00 843.00 L 861.00 838.00 L 859.00 833.00 L 855.00 829.00 L 851.00 827.00 L 842.00 826.00 L 830.00 826.00 Z
  M 835.00 835.00 L 837.00 833.00 L 848.00 833.00 L 850.00 834.00 L 853.00 837.00 L 854.00 839.00 L 854.00 843.00 L 853.00 845.00 L 849.00 848.00 L 846.00 849.00 L 837.00 849.00 L 835.00 847.00 Z
  M 753.00 826.00 L 744.00 830.00 L 738.00 837.00 L 735.00 844.00 L 735.00 856.00 L 736.00 860.00 L 738.00 864.00 L 744.00 870.00 L 752.00 874.00 L 760.00 875.00 L 768.00 873.00 L 772.00 871.00 L 777.00 867.00 L 777.00 866.00 L 780.00 863.00 L 783.00 855.00 L 783.00 845.00 L 782.00 841.00 L 780.00 837.00 L 777.00 833.00 L 772.00 829.00 L 765.00 826.00 Z
  M 756.00 832.00 L 761.00 832.00 L 765.00 833.00 L 769.00 835.00 L 773.00 839.00 L 776.00 846.00 L 776.00 854.00 L 773.00 861.00 L 768.00 866.00 L 763.00 868.00 L 754.00 868.00 L 751.00 867.00 L 745.00 862.00 L 742.00 856.00 L 742.00 844.00 L 744.00 840.00 L 750.00 834.00 Z
  M 672.00 826.00 L 668.00 828.00 L 663.00 833.00 L 662.00 835.00 L 662.00 842.00 L 664.00 846.00 L 667.00 849.00 L 671.00 851.00 L 679.00 853.00 L 683.00 855.00 L 686.00 859.00 L 686.00 864.00 L 683.00 867.00 L 676.00 869.00 L 672.00 868.00 L 669.00 866.00 L 667.00 863.00 L 665.00 862.00 L 661.00 865.00 L 661.00 867.00 L 666.00 872.00 L 670.00 874.00 L 674.00 874.00 L 675.00 875.00 L 678.00 875.00 L 679.00 874.00 L 683.00 874.00 L 686.00 873.00 L 690.00 870.00 L 693.00 864.00 L 693.00 857.00 L 691.00 853.00 L 687.00 849.00 L 677.00 846.00 L 673.00 844.00 L 669.00 840.00 L 669.00 836.00 L 672.00 833.00 L 674.00 832.00 L 679.00 832.00 L 682.00 833.00 L 686.00 837.00 L 688.00 837.00 L 691.00 835.00 L 691.00 832.00 L 688.00 829.00 L 682.00 826.00 Z
  M 589.00 828.00 L 590.00 874.00 L 618.00 873.00 L 617.00 868.00 L 597.00 868.00 L 595.00 866.00 L 595.00 854.00 L 597.00 852.00 L 615.00 851.00 L 614.00 846.00 L 597.00 846.00 L 595.00 844.00 L 595.00 835.00 L 597.00 833.00 L 617.00 833.00 L 616.00 826.00 L 595.00 826.00 Z
  M 510.00 828.00 L 511.00 874.00 L 517.00 873.00 L 517.00 857.00 L 519.00 855.00 L 525.00 855.00 L 529.00 859.00 L 533.00 867.00 L 537.00 872.00 L 537.00 873.00 L 544.00 874.00 L 544.00 871.00 L 534.00 855.00 L 541.00 848.00 L 542.00 846.00 L 543.00 840.00 L 541.00 833.00 L 537.00 829.00 L 533.00 827.00 L 527.00 826.00 L 516.00 826.00 Z
  M 517.00 835.00 L 519.00 833.00 L 530.00 833.00 L 532.00 834.00 L 535.00 837.00 L 536.00 839.00 L 536.00 842.00 L 535.00 844.00 L 531.00 848.00 L 528.00 849.00 L 519.00 849.00 L 517.00 847.00 Z
  M 1056.00 696.00 L 1062.00 701.00 L 1079.00 728.00 L 1085.00 739.00 L 1085.00 764.00 L 1082.00 769.00 L 1090.00 770.00 L 1095.00 770.00 L 1097.00 769.00 L 1094.00 763.00 L 1094.00 738.00 L 1114.00 705.00 L 1117.00 701.00 L 1122.00 697.00 L 1123.00 695.00 L 1112.00 695.00 L 1113.00 703.00 L 1108.00 712.00 L 1101.00 722.00 L 1100.00 725.00 L 1097.00 730.00 L 1095.00 732.00 L 1095.00 733.00 L 1091.00 733.00 L 1090.00 730.00 L 1085.00 723.00 L 1080.00 713.00 L 1073.00 703.00 L 1072.00 700.00 L 1073.00 695.00 Z
  M 960.00 696.00 L 960.00 705.00 L 966.00 700.00 L 970.00 698.00 L 974.00 697.00 L 985.00 697.00 L 988.00 700.00 L 988.00 764.00 L 985.00 769.00 L 1000.00 769.00 L 997.00 763.00 L 997.00 700.00 L 1000.00 697.00 L 1010.00 697.00 L 1019.00 700.00 L 1025.00 706.00 L 1025.00 699.00 L 1023.00 695.00 Z
  M 911.00 695.00 L 914.00 699.00 L 914.00 764.00 L 911.00 769.00 L 916.00 769.00 L 917.00 770.00 L 926.00 770.00 L 923.00 765.00 L 923.00 699.00 L 926.00 695.00 Z
  M 807.00 696.00 L 811.00 699.00 L 814.00 705.00 L 822.00 724.00 L 828.00 741.00 L 834.00 753.00 L 838.00 765.00 L 840.00 769.00 L 845.00 769.00 L 845.00 767.00 L 868.00 712.00 L 874.00 700.00 L 879.00 695.00 L 868.00 695.00 L 870.00 698.00 L 870.00 703.00 L 864.00 715.00 L 862.00 722.00 L 855.00 736.00 L 853.00 743.00 L 848.00 754.00 L 844.00 754.00 L 843.00 752.00 L 843.00 750.00 L 837.00 738.00 L 824.00 707.00 L 822.00 701.00 L 822.00 698.00 L 824.00 695.00 Z
  M 726.00 695.00 L 729.00 700.00 L 729.00 763.00 L 726.00 769.00 L 767.00 770.00 L 776.00 769.00 L 777.00 767.00 L 777.00 762.00 L 778.00 761.00 L 778.00 758.00 L 776.00 759.00 L 776.00 760.00 L 771.00 764.00 L 762.00 767.00 L 740.00 767.00 L 738.00 765.00 L 738.00 736.00 L 740.00 734.00 L 760.00 734.00 L 766.00 738.00 L 765.00 725.00 L 763.00 728.00 L 759.00 730.00 L 755.00 731.00 L 740.00 731.00 L 738.00 729.00 L 738.00 699.00 L 740.00 697.00 L 759.00 697.00 L 765.00 698.00 L 769.00 700.00 L 775.00 706.00 L 774.00 695.00 Z
  M 516.00 696.00 L 520.00 699.00 L 521.00 701.00 L 522.00 707.00 L 522.00 758.00 L 520.00 766.00 L 518.00 769.00 L 520.00 769.00 L 521.00 770.00 L 524.00 770.00 L 525.00 769.00 L 527.00 769.00 L 524.00 762.00 L 527.00 708.00 L 531.00 714.00 L 576.00 770.00 L 579.00 769.00 L 579.00 702.00 L 580.00 699.00 L 583.00 695.00 L 573.00 695.00 L 576.00 699.00 L 577.00 703.00 L 575.00 754.00 L 568.00 746.00 L 557.00 731.00 L 544.00 716.00 L 534.00 702.00 L 528.00 695.00 Z
  M 326.00 696.00 L 329.00 698.00 L 330.00 702.00 L 330.00 762.00 L 329.00 766.00 L 327.00 769.00 L 334.00 770.00 L 357.00 770.00 L 364.00 769.00 L 375.00 769.00 L 377.00 757.00 L 375.00 758.00 L 372.00 762.00 L 365.00 766.00 L 361.00 767.00 L 341.00 767.00 L 339.00 765.00 L 338.00 761.00 L 339.00 752.00 L 338.00 704.00 L 339.00 699.00 L 342.00 695.00 Z
  M 623.00 710.00 L 619.00 717.00 L 617.00 723.00 L 616.00 728.00 L 616.00 738.00 L 617.00 743.00 L 620.00 751.00 L 625.00 758.00 L 628.00 761.00 L 632.00 764.00 L 640.00 768.00 L 647.00 770.00 L 667.00 770.00 L 674.00 768.00 L 682.00 764.00 L 687.00 764.00 L 687.00 738.00 L 690.00 735.00 L 672.00 734.00 L 673.00 736.00 L 677.00 739.00 L 678.00 742.00 L 678.00 755.00 L 677.00 762.00 L 675.00 764.00 L 671.00 766.00 L 662.00 768.00 L 655.00 768.00 L 650.00 767.00 L 640.00 762.00 L 633.00 755.00 L 628.00 746.00 L 626.00 738.00 L 626.00 725.00 L 627.00 720.00 L 631.00 710.00 L 638.00 702.00 L 647.00 697.00 L 651.00 696.00 L 661.00 696.00 L 668.00 698.00 L 672.00 700.00 L 680.00 708.00 L 682.00 712.00 L 682.00 710.00 L 683.00 709.00 L 684.00 705.00 L 684.00 701.00 L 682.00 699.00 L 675.00 696.00 L 668.00 694.00 L 649.00 694.00 L 637.00 698.00 L 631.00 702.00 Z
  M 434.00 695.00 L 420.00 702.00 L 413.00 709.00 L 408.00 718.00 L 406.00 725.00 L 406.00 740.00 L 407.00 745.00 L 412.00 755.00 L 420.00 763.00 L 429.00 768.00 L 435.00 770.00 L 455.00 770.00 L 461.00 768.00 L 471.00 762.00 L 477.00 756.00 L 481.00 750.00 L 483.00 746.00 L 485.00 739.00 L 485.00 724.00 L 484.00 720.00 L 478.00 708.00 L 471.00 701.00 L 462.00 696.00 L 455.00 694.00 L 438.00 694.00 Z
  M 439.00 696.00 L 448.00 696.00 L 455.00 698.00 L 460.00 701.00 L 468.00 709.00 L 473.00 718.00 L 475.00 724.00 L 476.00 730.00 L 476.00 738.00 L 475.00 744.00 L 471.00 754.00 L 469.00 757.00 L 463.00 763.00 L 455.00 767.00 L 451.00 768.00 L 443.00 768.00 L 434.00 765.00 L 431.00 763.00 L 422.00 754.00 L 418.00 747.00 L 415.00 737.00 L 415.00 724.00 L 418.00 714.00 L 420.00 710.00 L 429.00 700.00 L 435.00 697.00 Z" fill="#f1c77e" fill-rule="evenodd"/>
</svg>
